<svg width="18" height="18" viewBox="0 0 18 18" fill="none" xmlns="http://www.w3.org/2000/svg">
<path d="M17.0475 17.0471L0.9525 0.952148L0 1.90465L3.2925 5.19715L4.95 8.69215L3.9375 10.5296C3.8175 10.7396 3.75 10.9871 3.75 11.2496C3.75 12.0746 4.425 12.7496 5.25 12.7496H10.845L11.88 13.7846C11.505 14.0546 11.2575 14.4971 11.2575 14.9996C11.2575 15.8246 11.925 16.4996 12.75 16.4996C13.2525 16.4996 13.695 16.2521 13.965 15.8696L16.095 17.9996L17.0475 17.0471ZM5.565 11.2496C5.46 11.2496 5.3775 11.1671 5.3775 11.0621L5.4 10.9721L6.075 9.74965H7.845L9.345 11.2496H5.565ZM11.6625 9.74965C12.225 9.74965 12.72 9.44215 12.975 8.97715L15.66 4.10965C15.72 4.00465 15.75 3.87715 15.75 3.74965C15.75 3.33715 15.4125 2.99965 15 2.99965H4.905L11.6625 9.74965ZM5.25 13.4996C4.425 13.4996 3.7575 14.1746 3.7575 14.9996C3.7575 15.8246 4.425 16.4996 5.25 16.4996C6.075 16.4996 6.75 15.8246 6.75 14.9996C6.75 14.1746 6.075 13.4996 5.25 13.4996Z" fill="#E10000"/>
</svg>
